# xmcd CD database file
#
# Track frame offsets:
#	150
#	13605
#	26850
#	40230
#	51675
#	65237
#	78805
#	91787
#	105475
#	118262
#	127645
#	141242
#	154787
#	169575
#	182975
#	196737
#	209795
#	223420
#	236950
#	249950
#	263595
#	274512
#	287970
#	301185
#	314767
#
# Disc length: 4405 seconds
#
# Revision: 0
# Processed by: cddbd v1.5.2PL0 Copyright (c) Steve Scherf et al.
# Submitted via: CDex 1.70beta3
#
DISCID=78113319
DTITLE=Various Artist - MS 20bit BETHLEHEM MASTER TRANSFER COLLECTION SPECIAL SAMPLER
DYEAR=1995
DGENRE=Jazz
TTITLE0=MAL WALDRON-LEFT ALONE
TTITLE1=BOOKER LITTLE AND FRIEND-VICTORY AND SORROW
TTITLE2=DEXTER GORDON-DADDY PLAYS THE HORN
TTITLE3=BETTY BLAKE-TROUBLE IS A MAN
TTITLE4=CHARLIE MINGUS-MEMORIES OF YOU
TTITLE5=NINA SIMONE-I LOVES YOU, PORGY
TTITLE6=ROLAND KIRK-ROLAND'S THEME
TTITLE7=HELLEN CARR-YOU'RE GETTING TO BE A HABIT WITH ME
TTITLE8=HOWARD McGHEE-LOVER MAN
TTITLE9=PAT MORAN-THIS CAN'T BE LOVE
TTITLE10=OSCAR PETTIFORD-STARDUST
TTITLE11=SAL SALVADOR-FRIVOLOUS SAL
TTITLE12=JOHN COLTRANE-TRIPPIN' TK.1
TTITLE13=CLAUDE WILLIAMSON-STELLA BY STARLIGHT
TTITLE14=BOOKER ERVIN-BLUE BOOK
TTITLE15=MEL TORME（WITH MARTY PAICH QUINTET）-NIGHTINGALE SANG IN BERKELEY SQUARE
TTITLE16=HAL McKUSICK-TAYLOR MADE
TTITLE17=ART BLAKEY'S JAZZ MESSENGERS-RIGHT DOWN FRONT
TTITLE18=JOHNNY HARTMAN-WHAT IS THERE TO SAY
TTITLE19=JOHN COLTRANE-LAZY AFTERNOON
TTITLE20=CHRIS CONNOR AND ELLIS LARKINS TRIO-LULLABY OF BIRDLAND
TTITLE21=CHRIS CONNOR-SOMEONE TO WATCH OVER ME
TTITLE22=CHRIS CONNOR-LUSH LIFE
TTITLE23=CHARLIE MARIANO-JOHNNY ONE NOTE
TTITLE24=ZOOT SIMS-JIVE AT FIVE
EXTD=YEAR: 1995
EXTT0=
EXTT1=
EXTT2=
EXTT3=
EXTT4=
EXTT5=
EXTT6=
EXTT7=
EXTT8=
EXTT9=
EXTT10=
EXTT11=
EXTT12=
EXTT13=
EXTT14=
EXTT15=
EXTT16=
EXTT17=
EXTT18=
EXTT19=
EXTT20=
EXTT21=
EXTT22=
EXTT23=
EXTT24=
PLAYORDER=
